<svg xmlns="http://www.w3.org/2000/svg" version="1.1" xmlns:xlink="http://www.w3.org/1999/xlink" xmlns:svgjs="http://svgjs.dev/svgjs" viewBox="0 0 800 800"><g><circle r="37.5" cx="0" cy="0" fill="hsl(199, 48%, 50%)"></circle><circle r="37.5" cx="0" cy="75" fill="hsl(215, 48%, 50%)"></circle><circle r="37.5" cx="0" cy="150" fill="hsl(245, 48%, 50%)"></circle><circle r="37.5" cx="0" cy="225" fill="hsl(258, 48%, 50%)"></circle><circle r="37.5" cx="0" cy="300" fill="hsl(279, 48%, 50%)"></circle><circle r="37.5" cx="0" cy="375" fill="hsl(286, 48%, 50%)"></circle><circle r="37.5" cx="0" cy="450" fill="hsl(290, 48%, 50%)"></circle><circle r="37.5" cx="0" cy="525" fill="hsl(287, 48%, 50%)"></circle><circle r="37.5" cx="0" cy="600" fill="hsl(272, 48%, 50%)"></circle><circle r="37.5" cx="0" cy="675" fill="hsl(260, 48%, 50%)"></circle><circle r="37.5" cx="0" cy="750" fill="hsl(231, 48%, 50%)"></circle><circle r="37.5" cx="0" cy="825" fill="hsl(231, 48%, 50%)"></circle><circle r="37.5" cx="0" cy="900" fill="hsl(231, 48%, 50%)"></circle><circle r="37.5" cx="75" cy="0" fill="hsl(215, 48%, 50%)"></circle><circle r="37.5" cx="75" cy="75" fill="hsl(231, 48%, 50%)"></circle><circle r="37.5" cx="75" cy="150" fill="hsl(260, 48%, 50%)"></circle><circle r="37.5" cx="75" cy="225" fill="hsl(273, 48%, 50%)"></circle><circle r="37.5" cx="75" cy="300" fill="hsl(292, 48%, 50%)"></circle><circle r="37.5" cx="75" cy="375" fill="hsl(298, 48%, 50%)"></circle><circle r="37.5" cx="75" cy="450" fill="hsl(300, 48%, 50%)"></circle><circle r="37.5" cx="75" cy="525" fill="hsl(297, 48%, 50%)"></circle><circle r="37.5" cx="75" cy="600" fill="hsl(281, 48%, 50%)"></circle><circle r="37.5" cx="75" cy="675" fill="hsl(269, 48%, 50%)"></circle><circle r="37.5" cx="75" cy="750" fill="hsl(239, 48%, 50%)"></circle><circle r="37.5" cx="75" cy="825" fill="hsl(239, 48%, 50%)"></circle><circle r="37.5" cx="75" cy="900" fill="hsl(239, 48%, 50%)"></circle><circle r="37.5" cx="150" cy="0" fill="hsl(245, 48%, 50%)"></circle><circle r="37.5" cx="150" cy="75" fill="hsl(260, 48%, 50%)"></circle><circle r="37.5" cx="150" cy="150" fill="hsl(287, 48%, 50%)"></circle><circle r="37.5" cx="150" cy="225" fill="hsl(298, 48%, 50%)"></circle><circle r="37.5" cx="150" cy="300" fill="hsl(313, 48%, 50%)"></circle><circle r="37.5" cx="150" cy="375" fill="hsl(317, 48%, 50%)"></circle><circle r="37.5" cx="150" cy="450" fill="hsl(317, 48%, 50%)"></circle><circle r="37.5" cx="150" cy="525" fill="hsl(313, 48%, 50%)"></circle><circle r="37.5" cx="150" cy="600" fill="hsl(296, 48%, 50%)"></circle><circle r="37.5" cx="150" cy="675" fill="hsl(284, 48%, 50%)"></circle><circle r="37.5" cx="150" cy="750" fill="hsl(254, 48%, 50%)"></circle><circle r="37.5" cx="150" cy="825" fill="hsl(254, 48%, 50%)"></circle><circle r="37.5" cx="150" cy="900" fill="hsl(254, 48%, 50%)"></circle><circle r="37.5" cx="225" cy="0" fill="hsl(258, 48%, 50%)"></circle><circle r="37.5" cx="225" cy="75" fill="hsl(273, 48%, 50%)"></circle><circle r="37.5" cx="225" cy="150" fill="hsl(298, 48%, 50%)"></circle><circle r="37.5" cx="225" cy="225" fill="hsl(308, 48%, 50%)"></circle><circle r="37.5" cx="225" cy="300" fill="hsl(322, 48%, 50%)"></circle><circle r="37.5" cx="225" cy="375" fill="hsl(325, 48%, 50%)"></circle><circle r="37.5" cx="225" cy="450" fill="hsl(323, 48%, 50%)"></circle><circle r="37.5" cx="225" cy="525" fill="hsl(318, 48%, 50%)"></circle><circle r="37.5" cx="225" cy="600" fill="hsl(301, 48%, 50%)"></circle><circle r="37.5" cx="225" cy="675" fill="hsl(289, 48%, 50%)"></circle><circle r="37.5" cx="225" cy="750" fill="hsl(260, 48%, 50%)"></circle><circle r="37.5" cx="225" cy="825" fill="hsl(260, 48%, 50%)"></circle><circle r="37.5" cx="225" cy="900" fill="hsl(260, 48%, 50%)"></circle><circle r="37.5" cx="300" cy="0" fill="hsl(279, 48%, 50%)"></circle><circle r="37.5" cx="300" cy="75" fill="hsl(292, 48%, 50%)"></circle><circle r="37.5" cx="300" cy="150" fill="hsl(313, 48%, 50%)"></circle><circle r="37.5" cx="300" cy="225" fill="hsl(322, 48%, 50%)"></circle><circle r="37.5" cx="300" cy="300" fill="hsl(332, 48%, 50%)"></circle><circle r="37.5" cx="300" cy="375" fill="hsl(333, 48%, 50%)"></circle><circle r="37.5" cx="300" cy="450" fill="hsl(330, 48%, 50%)"></circle><circle r="37.5" cx="300" cy="525" fill="hsl(325, 48%, 50%)"></circle><circle r="37.5" cx="300" cy="600" fill="hsl(308, 48%, 50%)"></circle><circle r="37.5" cx="300" cy="675" fill="hsl(296, 48%, 50%)"></circle><circle r="37.5" cx="300" cy="750" fill="hsl(269, 48%, 50%)"></circle><circle r="37.5" cx="300" cy="825" fill="hsl(269, 48%, 50%)"></circle><circle r="37.5" cx="300" cy="900" fill="hsl(269, 48%, 50%)"></circle><circle r="37.5" cx="375" cy="0" fill="hsl(286, 48%, 50%)"></circle><circle r="37.5" cx="375" cy="75" fill="hsl(298, 48%, 50%)"></circle><circle r="37.5" cx="375" cy="150" fill="hsl(317, 48%, 50%)"></circle><circle r="37.5" cx="375" cy="225" fill="hsl(325, 48%, 50%)"></circle><circle r="37.5" cx="375" cy="300" fill="hsl(333, 48%, 50%)"></circle><circle r="37.5" cx="375" cy="375" fill="hsl(335, 48%, 50%)"></circle><circle r="37.5" cx="375" cy="450" fill="hsl(331, 48%, 50%)"></circle><circle r="37.5" cx="375" cy="525" fill="hsl(325, 48%, 50%)"></circle><circle r="37.5" cx="375" cy="600" fill="hsl(309, 48%, 50%)"></circle><circle r="37.5" cx="375" cy="675" fill="hsl(298, 48%, 50%)"></circle><circle r="37.5" cx="375" cy="750" fill="hsl(272, 48%, 50%)"></circle><circle r="37.5" cx="375" cy="825" fill="hsl(272, 48%, 50%)"></circle><circle r="37.5" cx="375" cy="900" fill="hsl(272, 48%, 50%)"></circle><circle r="37.5" cx="450" cy="0" fill="hsl(294, 48%, 50%)"></circle><circle r="37.5" cx="450" cy="75" fill="hsl(303, 48%, 50%)"></circle><circle r="37.5" cx="450" cy="150" fill="hsl(319, 48%, 50%)"></circle><circle r="37.5" cx="450" cy="225" fill="hsl(324, 48%, 50%)"></circle><circle r="37.5" cx="450" cy="300" fill="hsl(331, 48%, 50%)"></circle><circle r="37.5" cx="450" cy="375" fill="hsl(332, 48%, 50%)"></circle><circle r="37.5" cx="450" cy="450" fill="hsl(328, 48%, 50%)"></circle><circle r="37.5" cx="450" cy="525" fill="hsl(323, 48%, 50%)"></circle><circle r="37.5" cx="450" cy="600" fill="hsl(308, 48%, 50%)"></circle><circle r="37.5" cx="450" cy="675" fill="hsl(298, 48%, 50%)"></circle><circle r="37.5" cx="450" cy="750" fill="hsl(275, 48%, 50%)"></circle><circle r="37.5" cx="450" cy="825" fill="hsl(275, 48%, 50%)"></circle><circle r="37.5" cx="450" cy="900" fill="hsl(275, 48%, 50%)"></circle><circle r="37.5" cx="525" cy="0" fill="hsl(294, 48%, 50%)"></circle><circle r="37.5" cx="525" cy="75" fill="hsl(302, 48%, 50%)"></circle><circle r="37.5" cx="525" cy="150" fill="hsl(316, 48%, 50%)"></circle><circle r="37.5" cx="525" cy="225" fill="hsl(321, 48%, 50%)"></circle><circle r="37.5" cx="525" cy="300" fill="hsl(327, 48%, 50%)"></circle><circle r="37.5" cx="525" cy="375" fill="hsl(328, 48%, 50%)"></circle><circle r="37.5" cx="525" cy="450" fill="hsl(324, 48%, 50%)"></circle><circle r="37.5" cx="525" cy="525" fill="hsl(320, 48%, 50%)"></circle><circle r="37.5" cx="525" cy="600" fill="hsl(306, 48%, 50%)"></circle><circle r="37.5" cx="525" cy="675" fill="hsl(297, 48%, 50%)"></circle><circle r="37.5" cx="525" cy="750" fill="hsl(275, 48%, 50%)"></circle><circle r="37.5" cx="525" cy="825" fill="hsl(275, 48%, 50%)"></circle><circle r="37.5" cx="525" cy="900" fill="hsl(275, 48%, 50%)"></circle><circle r="37.5" cx="600" cy="0" fill="hsl(291, 48%, 50%)"></circle><circle r="37.5" cx="600" cy="75" fill="hsl(296, 48%, 50%)"></circle><circle r="37.5" cx="600" cy="150" fill="hsl(306, 48%, 50%)"></circle><circle r="37.5" cx="600" cy="225" fill="hsl(310, 48%, 50%)"></circle><circle r="37.5" cx="600" cy="300" fill="hsl(315, 48%, 50%)"></circle><circle r="37.5" cx="600" cy="375" fill="hsl(316, 48%, 50%)"></circle><circle r="37.5" cx="600" cy="450" fill="hsl(315, 48%, 50%)"></circle><circle r="37.5" cx="600" cy="525" fill="hsl(312, 48%, 50%)"></circle><circle r="37.5" cx="600" cy="600" fill="hsl(301, 48%, 50%)"></circle><circle r="37.5" cx="600" cy="675" fill="hsl(294, 48%, 50%)"></circle><circle r="37.5" cx="600" cy="750" fill="hsl(276, 48%, 50%)"></circle><circle r="37.5" cx="600" cy="825" fill="hsl(276, 48%, 50%)"></circle><circle r="37.5" cx="600" cy="900" fill="hsl(276, 48%, 50%)"></circle><circle r="37.5" cx="675" cy="0" fill="hsl(287, 48%, 50%)"></circle><circle r="37.5" cx="675" cy="75" fill="hsl(291, 48%, 50%)"></circle><circle r="37.5" cx="675" cy="150" fill="hsl(299, 48%, 50%)"></circle><circle r="37.5" cx="675" cy="225" fill="hsl(302, 48%, 50%)"></circle><circle r="37.5" cx="675" cy="300" fill="hsl(308, 48%, 50%)"></circle><circle r="37.5" cx="675" cy="375" fill="hsl(309, 48%, 50%)"></circle><circle r="37.5" cx="675" cy="450" fill="hsl(309, 48%, 50%)"></circle><circle r="37.5" cx="675" cy="525" fill="hsl(307, 48%, 50%)"></circle><circle r="37.5" cx="675" cy="600" fill="hsl(298, 48%, 50%)"></circle><circle r="37.5" cx="675" cy="675" fill="hsl(292, 48%, 50%)"></circle><circle r="37.5" cx="675" cy="750" fill="hsl(276, 48%, 50%)"></circle><circle r="37.5" cx="675" cy="825" fill="hsl(276, 48%, 50%)"></circle><circle r="37.5" cx="675" cy="900" fill="hsl(276, 48%, 50%)"></circle><circle r="37.5" cx="750" cy="0" fill="hsl(275, 48%, 50%)"></circle><circle r="37.5" cx="750" cy="75" fill="hsl(277, 48%, 50%)"></circle><circle r="37.5" cx="750" cy="150" fill="hsl(282, 48%, 50%)"></circle><circle r="37.5" cx="750" cy="225" fill="hsl(285, 48%, 50%)"></circle><circle r="37.5" cx="750" cy="300" fill="hsl(291, 48%, 50%)"></circle><circle r="37.5" cx="750" cy="375" fill="hsl(294, 48%, 50%)"></circle><circle r="37.5" cx="750" cy="450" fill="hsl(297, 48%, 50%)"></circle><circle r="37.5" cx="750" cy="525" fill="hsl(297, 48%, 50%)"></circle><circle r="37.5" cx="750" cy="600" fill="hsl(293, 48%, 50%)"></circle><circle r="37.5" cx="750" cy="675" fill="hsl(289, 48%, 50%)"></circle><circle r="37.5" cx="750" cy="750" fill="hsl(277, 48%, 50%)"></circle><circle r="37.5" cx="750" cy="825" fill="hsl(277, 48%, 50%)"></circle><circle r="37.5" cx="750" cy="900" fill="hsl(277, 48%, 50%)"></circle><circle r="37.5" cx="825" cy="0" fill="hsl(275, 48%, 50%)"></circle><circle r="37.5" cx="825" cy="75" fill="hsl(277, 48%, 50%)"></circle><circle r="37.5" cx="825" cy="150" fill="hsl(282, 48%, 50%)"></circle><circle r="37.5" cx="825" cy="225" fill="hsl(285, 48%, 50%)"></circle><circle r="37.5" cx="825" cy="300" fill="hsl(291, 48%, 50%)"></circle><circle r="37.5" cx="825" cy="375" fill="hsl(294, 48%, 50%)"></circle><circle r="37.5" cx="825" cy="450" fill="hsl(297, 48%, 50%)"></circle><circle r="37.5" cx="825" cy="525" fill="hsl(297, 48%, 50%)"></circle><circle r="37.5" cx="825" cy="600" fill="hsl(293, 48%, 50%)"></circle><circle r="37.5" cx="825" cy="675" fill="hsl(289, 48%, 50%)"></circle><circle r="37.5" cx="825" cy="750" fill="hsl(277, 48%, 50%)"></circle><circle r="37.5" cx="825" cy="825" fill="hsl(277, 48%, 50%)"></circle><circle r="37.5" cx="825" cy="900" fill="hsl(277, 48%, 50%)"></circle><circle r="37.5" cx="900" cy="0" fill="hsl(275, 48%, 50%)"></circle><circle r="37.5" cx="900" cy="75" fill="hsl(277, 48%, 50%)"></circle><circle r="37.5" cx="900" cy="150" fill="hsl(282, 48%, 50%)"></circle><circle r="37.5" cx="900" cy="225" fill="hsl(285, 48%, 50%)"></circle><circle r="37.5" cx="900" cy="300" fill="hsl(291, 48%, 50%)"></circle><circle r="37.5" cx="900" cy="375" fill="hsl(294, 48%, 50%)"></circle><circle r="37.5" cx="900" cy="450" fill="hsl(297, 48%, 50%)"></circle><circle r="37.5" cx="900" cy="525" fill="hsl(297, 48%, 50%)"></circle><circle r="37.5" cx="900" cy="600" fill="hsl(293, 48%, 50%)"></circle><circle r="37.5" cx="900" cy="675" fill="hsl(289, 48%, 50%)"></circle><circle r="37.5" cx="900" cy="750" fill="hsl(277, 48%, 50%)"></circle><circle r="37.5" cx="900" cy="825" fill="hsl(277, 48%, 50%)"></circle><circle r="37.5" cx="900" cy="900" fill="hsl(277, 48%, 50%)"></circle><circle r="37.5" cx="975" cy="0" fill="hsl(275, 48%, 50%)"></circle><circle r="37.5" cx="975" cy="75" fill="hsl(277, 48%, 50%)"></circle><circle r="37.5" cx="975" cy="150" fill="hsl(282, 48%, 50%)"></circle><circle r="37.5" cx="975" cy="225" fill="hsl(285, 48%, 50%)"></circle><circle r="37.5" cx="975" cy="300" fill="hsl(291, 48%, 50%)"></circle><circle r="37.5" cx="975" cy="375" fill="hsl(294, 48%, 50%)"></circle><circle r="37.5" cx="975" cy="450" fill="hsl(297, 48%, 50%)"></circle><circle r="37.5" cx="975" cy="525" fill="hsl(297, 48%, 50%)"></circle><circle r="37.5" cx="975" cy="600" fill="hsl(293, 48%, 50%)"></circle><circle r="37.5" cx="975" cy="675" fill="hsl(289, 48%, 50%)"></circle><circle r="37.5" cx="975" cy="750" fill="hsl(277, 48%, 50%)"></circle><circle r="37.5" cx="975" cy="825" fill="hsl(277, 48%, 50%)"></circle><circle r="37.5" cx="975" cy="900" fill="hsl(277, 48%, 50%)"></circle></g><g transform="matrix(1,0,0,1,-37.5,0)"><circle r="37.5" cx="0" cy="37.5" fill="hsl(199, 48%, 50%)"></circle><circle r="37.5" cx="0" cy="112.5" fill="hsl(230, 48%, 50%)"></circle><circle r="37.5" cx="0" cy="187.5" fill="hsl(245, 48%, 50%)"></circle><circle r="37.5" cx="0" cy="262.5" fill="hsl(270, 48%, 50%)"></circle><circle r="37.5" cx="0" cy="337.5" fill="hsl(279, 48%, 50%)"></circle><circle r="37.5" cx="0" cy="412.5" fill="hsl(289, 48%, 50%)"></circle><circle r="37.5" cx="0" cy="487.5" fill="hsl(290, 48%, 50%)"></circle><circle r="37.5" cx="0" cy="562.5" fill="hsl(281, 48%, 50%)"></circle><circle r="37.5" cx="0" cy="637.5" fill="hsl(272, 48%, 50%)"></circle><circle r="37.5" cx="0" cy="712.5" fill="hsl(246, 48%, 50%)"></circle><circle r="37.5" cx="0" cy="787.5" fill="hsl(231, 48%, 50%)"></circle><circle r="37.5" cx="0" cy="862.5" fill="hsl(231, 48%, 50%)"></circle><circle r="37.5" cx="75" cy="37.5" fill="hsl(215, 48%, 50%)"></circle><circle r="37.5" cx="75" cy="112.5" fill="hsl(246, 48%, 50%)"></circle><circle r="37.5" cx="75" cy="187.5" fill="hsl(260, 48%, 50%)"></circle><circle r="37.5" cx="75" cy="262.5" fill="hsl(283, 48%, 50%)"></circle><circle r="37.5" cx="75" cy="337.5" fill="hsl(292, 48%, 50%)"></circle><circle r="37.5" cx="75" cy="412.5" fill="hsl(301, 48%, 50%)"></circle><circle r="37.5" cx="75" cy="487.5" fill="hsl(300, 48%, 50%)"></circle><circle r="37.5" cx="75" cy="562.5" fill="hsl(290, 48%, 50%)"></circle><circle r="37.5" cx="75" cy="637.5" fill="hsl(281, 48%, 50%)"></circle><circle r="37.5" cx="75" cy="712.5" fill="hsl(255, 48%, 50%)"></circle><circle r="37.5" cx="75" cy="787.5" fill="hsl(239, 48%, 50%)"></circle><circle r="37.5" cx="75" cy="862.5" fill="hsl(239, 48%, 50%)"></circle><circle r="37.5" cx="150" cy="37.5" fill="hsl(245, 48%, 50%)"></circle><circle r="37.5" cx="150" cy="112.5" fill="hsl(274, 48%, 50%)"></circle><circle r="37.5" cx="150" cy="187.5" fill="hsl(287, 48%, 50%)"></circle><circle r="37.5" cx="150" cy="262.5" fill="hsl(307, 48%, 50%)"></circle><circle r="37.5" cx="150" cy="337.5" fill="hsl(313, 48%, 50%)"></circle><circle r="37.5" cx="150" cy="412.5" fill="hsl(319, 48%, 50%)"></circle><circle r="37.5" cx="150" cy="487.5" fill="hsl(317, 48%, 50%)"></circle><circle r="37.5" cx="150" cy="562.5" fill="hsl(306, 48%, 50%)"></circle><circle r="37.5" cx="150" cy="637.5" fill="hsl(296, 48%, 50%)"></circle><circle r="37.5" cx="150" cy="712.5" fill="hsl(269, 48%, 50%)"></circle><circle r="37.5" cx="150" cy="787.5" fill="hsl(254, 48%, 50%)"></circle><circle r="37.5" cx="150" cy="862.5" fill="hsl(254, 48%, 50%)"></circle><circle r="37.5" cx="225" cy="37.5" fill="hsl(258, 48%, 50%)"></circle><circle r="37.5" cx="225" cy="112.5" fill="hsl(286, 48%, 50%)"></circle><circle r="37.5" cx="225" cy="187.5" fill="hsl(298, 48%, 50%)"></circle><circle r="37.5" cx="225" cy="262.5" fill="hsl(316, 48%, 50%)"></circle><circle r="37.5" cx="225" cy="337.5" fill="hsl(322, 48%, 50%)"></circle><circle r="37.5" cx="225" cy="412.5" fill="hsl(325, 48%, 50%)"></circle><circle r="37.5" cx="225" cy="487.5" fill="hsl(323, 48%, 50%)"></circle><circle r="37.5" cx="225" cy="562.5" fill="hsl(311, 48%, 50%)"></circle><circle r="37.5" cx="225" cy="637.5" fill="hsl(301, 48%, 50%)"></circle><circle r="37.5" cx="225" cy="712.5" fill="hsl(275, 48%, 50%)"></circle><circle r="37.5" cx="225" cy="787.5" fill="hsl(260, 48%, 50%)"></circle><circle r="37.5" cx="225" cy="862.5" fill="hsl(260, 48%, 50%)"></circle><circle r="37.5" cx="300" cy="37.5" fill="hsl(279, 48%, 50%)"></circle><circle r="37.5" cx="300" cy="112.5" fill="hsl(303, 48%, 50%)"></circle><circle r="37.5" cx="300" cy="187.5" fill="hsl(313, 48%, 50%)"></circle><circle r="37.5" cx="300" cy="262.5" fill="hsl(328, 48%, 50%)"></circle><circle r="37.5" cx="300" cy="337.5" fill="hsl(332, 48%, 50%)"></circle><circle r="37.5" cx="300" cy="412.5" fill="hsl(333, 48%, 50%)"></circle><circle r="37.5" cx="300" cy="487.5" fill="hsl(330, 48%, 50%)"></circle><circle r="37.5" cx="300" cy="562.5" fill="hsl(317, 48%, 50%)"></circle><circle r="37.5" cx="300" cy="637.5" fill="hsl(308, 48%, 50%)"></circle><circle r="37.5" cx="300" cy="712.5" fill="hsl(283, 48%, 50%)"></circle><circle r="37.5" cx="300" cy="787.5" fill="hsl(269, 48%, 50%)"></circle><circle r="37.5" cx="300" cy="862.5" fill="hsl(269, 48%, 50%)"></circle><circle r="37.5" cx="375" cy="37.5" fill="hsl(286, 48%, 50%)"></circle><circle r="37.5" cx="375" cy="112.5" fill="hsl(308, 48%, 50%)"></circle><circle r="37.5" cx="375" cy="187.5" fill="hsl(317, 48%, 50%)"></circle><circle r="37.5" cx="375" cy="262.5" fill="hsl(330, 48%, 50%)"></circle><circle r="37.5" cx="375" cy="337.5" fill="hsl(333, 48%, 50%)"></circle><circle r="37.5" cx="375" cy="412.5" fill="hsl(334, 48%, 50%)"></circle><circle r="37.5" cx="375" cy="487.5" fill="hsl(331, 48%, 50%)"></circle><circle r="37.5" cx="375" cy="562.5" fill="hsl(318, 48%, 50%)"></circle><circle r="37.5" cx="375" cy="637.5" fill="hsl(309, 48%, 50%)"></circle><circle r="37.5" cx="375" cy="712.5" fill="hsl(285, 48%, 50%)"></circle><circle r="37.5" cx="375" cy="787.5" fill="hsl(272, 48%, 50%)"></circle><circle r="37.5" cx="375" cy="862.5" fill="hsl(272, 48%, 50%)"></circle><circle r="37.5" cx="450" cy="37.5" fill="hsl(294, 48%, 50%)"></circle><circle r="37.5" cx="450" cy="112.5" fill="hsl(311, 48%, 50%)"></circle><circle r="37.5" cx="450" cy="187.5" fill="hsl(319, 48%, 50%)"></circle><circle r="37.5" cx="450" cy="262.5" fill="hsl(329, 48%, 50%)"></circle><circle r="37.5" cx="450" cy="337.5" fill="hsl(331, 48%, 50%)"></circle><circle r="37.5" cx="450" cy="412.5" fill="hsl(331, 48%, 50%)"></circle><circle r="37.5" cx="450" cy="487.5" fill="hsl(328, 48%, 50%)"></circle><circle r="37.5" cx="450" cy="562.5" fill="hsl(316, 48%, 50%)"></circle><circle r="37.5" cx="450" cy="637.5" fill="hsl(308, 48%, 50%)"></circle><circle r="37.5" cx="450" cy="712.5" fill="hsl(287, 48%, 50%)"></circle><circle r="37.5" cx="450" cy="787.5" fill="hsl(275, 48%, 50%)"></circle><circle r="37.5" cx="450" cy="862.5" fill="hsl(275, 48%, 50%)"></circle><circle r="37.5" cx="525" cy="37.5" fill="hsl(294, 48%, 50%)"></circle><circle r="37.5" cx="525" cy="112.5" fill="hsl(310, 48%, 50%)"></circle><circle r="37.5" cx="525" cy="187.5" fill="hsl(316, 48%, 50%)"></circle><circle r="37.5" cx="525" cy="262.5" fill="hsl(325, 48%, 50%)"></circle><circle r="37.5" cx="525" cy="337.5" fill="hsl(327, 48%, 50%)"></circle><circle r="37.5" cx="525" cy="412.5" fill="hsl(327, 48%, 50%)"></circle><circle r="37.5" cx="525" cy="487.5" fill="hsl(324, 48%, 50%)"></circle><circle r="37.5" cx="525" cy="562.5" fill="hsl(314, 48%, 50%)"></circle><circle r="37.5" cx="525" cy="637.5" fill="hsl(306, 48%, 50%)"></circle><circle r="37.5" cx="525" cy="712.5" fill="hsl(287, 48%, 50%)"></circle><circle r="37.5" cx="525" cy="787.5" fill="hsl(275, 48%, 50%)"></circle><circle r="37.5" cx="525" cy="862.5" fill="hsl(275, 48%, 50%)"></circle><circle r="37.5" cx="600" cy="37.5" fill="hsl(291, 48%, 50%)"></circle><circle r="37.5" cx="600" cy="112.5" fill="hsl(301, 48%, 50%)"></circle><circle r="37.5" cx="600" cy="187.5" fill="hsl(306, 48%, 50%)"></circle><circle r="37.5" cx="600" cy="262.5" fill="hsl(313, 48%, 50%)"></circle><circle r="37.5" cx="600" cy="337.5" fill="hsl(315, 48%, 50%)"></circle><circle r="37.5" cx="600" cy="412.5" fill="hsl(316, 48%, 50%)"></circle><circle r="37.5" cx="600" cy="487.5" fill="hsl(315, 48%, 50%)"></circle><circle r="37.5" cx="600" cy="562.5" fill="hsl(307, 48%, 50%)"></circle><circle r="37.5" cx="600" cy="637.5" fill="hsl(301, 48%, 50%)"></circle><circle r="37.5" cx="600" cy="712.5" fill="hsl(285, 48%, 50%)"></circle><circle r="37.5" cx="600" cy="787.5" fill="hsl(276, 48%, 50%)"></circle><circle r="37.5" cx="600" cy="862.5" fill="hsl(276, 48%, 50%)"></circle><circle r="37.5" cx="675" cy="37.5" fill="hsl(287, 48%, 50%)"></circle><circle r="37.5" cx="675" cy="112.5" fill="hsl(295, 48%, 50%)"></circle><circle r="37.5" cx="675" cy="187.5" fill="hsl(299, 48%, 50%)"></circle><circle r="37.5" cx="675" cy="262.5" fill="hsl(305, 48%, 50%)"></circle><circle r="37.5" cx="675" cy="337.5" fill="hsl(308, 48%, 50%)"></circle><circle r="37.5" cx="675" cy="412.5" fill="hsl(310, 48%, 50%)"></circle><circle r="37.5" cx="675" cy="487.5" fill="hsl(309, 48%, 50%)"></circle><circle r="37.5" cx="675" cy="562.5" fill="hsl(303, 48%, 50%)"></circle><circle r="37.5" cx="675" cy="637.5" fill="hsl(298, 48%, 50%)"></circle><circle r="37.5" cx="675" cy="712.5" fill="hsl(284, 48%, 50%)"></circle><circle r="37.5" cx="675" cy="787.5" fill="hsl(276, 48%, 50%)"></circle><circle r="37.5" cx="675" cy="862.5" fill="hsl(276, 48%, 50%)"></circle><circle r="37.5" cx="750" cy="37.5" fill="hsl(275, 48%, 50%)"></circle><circle r="37.5" cx="750" cy="112.5" fill="hsl(279, 48%, 50%)"></circle><circle r="37.5" cx="750" cy="187.5" fill="hsl(282, 48%, 50%)"></circle><circle r="37.5" cx="750" cy="262.5" fill="hsl(288, 48%, 50%)"></circle><circle r="37.5" cx="750" cy="337.5" fill="hsl(291, 48%, 50%)"></circle><circle r="37.5" cx="750" cy="412.5" fill="hsl(296, 48%, 50%)"></circle><circle r="37.5" cx="750" cy="487.5" fill="hsl(297, 48%, 50%)"></circle><circle r="37.5" cx="750" cy="562.5" fill="hsl(296, 48%, 50%)"></circle><circle r="37.5" cx="750" cy="637.5" fill="hsl(293, 48%, 50%)"></circle><circle r="37.5" cx="750" cy="712.5" fill="hsl(284, 48%, 50%)"></circle><circle r="37.5" cx="750" cy="787.5" fill="hsl(277, 48%, 50%)"></circle><circle r="37.5" cx="750" cy="862.5" fill="hsl(277, 48%, 50%)"></circle><circle r="37.5" cx="825" cy="37.5" fill="hsl(275, 48%, 50%)"></circle><circle r="37.5" cx="825" cy="112.5" fill="hsl(279, 48%, 50%)"></circle><circle r="37.5" cx="825" cy="187.5" fill="hsl(282, 48%, 50%)"></circle><circle r="37.5" cx="825" cy="262.5" fill="hsl(288, 48%, 50%)"></circle><circle r="37.5" cx="825" cy="337.5" fill="hsl(291, 48%, 50%)"></circle><circle r="37.5" cx="825" cy="412.5" fill="hsl(296, 48%, 50%)"></circle><circle r="37.5" cx="825" cy="487.5" fill="hsl(297, 48%, 50%)"></circle><circle r="37.5" cx="825" cy="562.5" fill="hsl(296, 48%, 50%)"></circle><circle r="37.5" cx="825" cy="637.5" fill="hsl(293, 48%, 50%)"></circle><circle r="37.5" cx="825" cy="712.5" fill="hsl(284, 48%, 50%)"></circle><circle r="37.5" cx="825" cy="787.5" fill="hsl(277, 48%, 50%)"></circle><circle r="37.5" cx="825" cy="862.5" fill="hsl(277, 48%, 50%)"></circle><circle r="37.5" cx="900" cy="37.5" fill="hsl(275, 48%, 50%)"></circle><circle r="37.5" cx="900" cy="112.5" fill="hsl(279, 48%, 50%)"></circle><circle r="37.5" cx="900" cy="187.5" fill="hsl(282, 48%, 50%)"></circle><circle r="37.5" cx="900" cy="262.5" fill="hsl(288, 48%, 50%)"></circle><circle r="37.5" cx="900" cy="337.5" fill="hsl(291, 48%, 50%)"></circle><circle r="37.5" cx="900" cy="412.5" fill="hsl(296, 48%, 50%)"></circle><circle r="37.5" cx="900" cy="487.5" fill="hsl(297, 48%, 50%)"></circle><circle r="37.5" cx="900" cy="562.5" fill="hsl(296, 48%, 50%)"></circle><circle r="37.5" cx="900" cy="637.5" fill="hsl(293, 48%, 50%)"></circle><circle r="37.5" cx="900" cy="712.5" fill="hsl(284, 48%, 50%)"></circle><circle r="37.5" cx="900" cy="787.5" fill="hsl(277, 48%, 50%)"></circle><circle r="37.5" cx="900" cy="862.5" fill="hsl(277, 48%, 50%)"></circle><circle r="37.5" cx="975" cy="37.5" fill="hsl(275, 48%, 50%)"></circle><circle r="37.5" cx="975" cy="112.5" fill="hsl(279, 48%, 50%)"></circle><circle r="37.5" cx="975" cy="187.5" fill="hsl(282, 48%, 50%)"></circle><circle r="37.5" cx="975" cy="262.5" fill="hsl(288, 48%, 50%)"></circle><circle r="37.5" cx="975" cy="337.5" fill="hsl(291, 48%, 50%)"></circle><circle r="37.5" cx="975" cy="412.5" fill="hsl(296, 48%, 50%)"></circle><circle r="37.5" cx="975" cy="487.5" fill="hsl(297, 48%, 50%)"></circle><circle r="37.5" cx="975" cy="562.5" fill="hsl(296, 48%, 50%)"></circle><circle r="37.5" cx="975" cy="637.5" fill="hsl(293, 48%, 50%)"></circle><circle r="37.5" cx="975" cy="712.5" fill="hsl(284, 48%, 50%)"></circle><circle r="37.5" cx="975" cy="787.5" fill="hsl(277, 48%, 50%)"></circle><circle r="37.5" cx="975" cy="862.5" fill="hsl(277, 48%, 50%)"></circle></g></svg>