<svg xmlns="http://www.w3.org/2000/svg" xmlns:xlink="http://www.w3.org/1999/xlink" width="500" zoomAndPan="magnify"
  viewBox="0 0 375 374.999991" height="500" preserveAspectRatio="xMidYMid meet" version="1.0">
  <defs>
    <clipPath id="d14bcaeb1c">
      <path
        d="M 25.179688 25.179688 L 349.820312 25.179688 L 349.820312 349.820312 L 25.179688 349.820312 Z M 25.179688 25.179688 "
        clip-rule="nonzero" />
    </clipPath>
    <clipPath id="d88a716e02">
      <path
        d="M 187.5 25.179688 C 97.855469 25.179688 25.179688 97.855469 25.179688 187.5 C 25.179688 277.144531 97.855469 349.820312 187.5 349.820312 C 277.144531 349.820312 349.820312 277.144531 349.820312 187.5 C 349.820312 97.855469 277.144531 25.179688 187.5 25.179688 Z M 187.5 25.179688 "
        clip-rule="nonzero" />
    </clipPath>
    <clipPath id="18b289fb27">
      <path
        d="M 0.179688 0.179688 L 324.820312 0.179688 L 324.820312 324.820312 L 0.179688 324.820312 Z M 0.179688 0.179688 "
        clip-rule="nonzero" />
    </clipPath>
    <clipPath id="dfe7ebeecd">
      <path
        d="M 162.5 0.179688 C 72.855469 0.179688 0.179688 72.855469 0.179688 162.5 C 0.179688 252.144531 72.855469 324.820312 162.5 324.820312 C 252.144531 324.820312 324.820312 252.144531 324.820312 162.5 C 324.820312 72.855469 252.144531 0.179688 162.5 0.179688 Z M 162.5 0.179688 "
        clip-rule="nonzero" />
    </clipPath>
    <clipPath id="dba768025c">
      <rect x="0" width="325" y="0" height="325" />
    </clipPath>
    <clipPath id="75d5c486c4">
      <path d="M 94 91 L 271 91 L 271 304 L 94 304 Z M 94 91 " clip-rule="nonzero" />
    </clipPath>
    <clipPath id="96b4bc8e70">
      <path
        d="M 44.320312 130.863281 L 150.964844 55.242188 L 280.046875 237.273438 L 173.402344 312.894531 Z M 44.320312 130.863281 "
        clip-rule="nonzero" />
    </clipPath>
    <clipPath id="42fffb6e30">
      <path
        d="M 107.992188 93.652344 L 262.855469 215.335938 C 268.136719 219.484375 271.148438 225.882812 270.984375 232.59375 C 270.820312 239.304688 267.496094 245.546875 262.019531 249.429688 L 190.839844 299.90625 C 185.359375 303.789062 178.371094 304.859375 171.984375 302.796875 C 165.59375 300.730469 160.554688 295.773438 158.386719 289.417969 L 94.785156 103.019531 C 93.578125 99.480469 94.84375 95.566406 97.894531 93.40625 C 100.941406 91.242188 105.050781 91.34375 107.992188 93.652344 Z M 107.992188 93.652344 "
        clip-rule="nonzero" />
    </clipPath>
    <clipPath id="21769911f4">
      <path d="M 0 0.199219 L 177 0.199219 L 177 213 L 0 213 Z M 0 0.199219 " clip-rule="nonzero" />
    </clipPath>
    <clipPath id="f8fcc5467a">
      <path
        d="M -49.679688 39.863281 L 56.964844 -35.757812 L 186.046875 146.273438 L 79.402344 221.894531 Z M -49.679688 39.863281 "
        clip-rule="nonzero" />
    </clipPath>
    <clipPath id="2a96f512b1">
      <path
        d="M 13.992188 2.652344 L 168.855469 124.335938 C 174.136719 128.484375 177.148438 134.882812 176.984375 141.59375 C 176.820312 148.304688 173.496094 154.546875 168.019531 158.429688 L 96.839844 208.90625 C 91.359375 212.789062 84.371094 213.859375 77.984375 211.796875 C 71.59375 209.730469 66.554688 204.773438 64.386719 198.417969 L 0.785156 12.019531 C -0.421875 8.480469 0.84375 4.566406 3.894531 2.40625 C 6.941406 0.242188 11.050781 0.34375 13.992188 2.652344 Z M 13.992188 2.652344 "
        clip-rule="nonzero" />
    </clipPath>
    <clipPath id="71ed082c0a">
      <rect x="0" width="177" y="0" height="213" />
    </clipPath>
    <clipPath id="7c3c695d98">
      <path d="M 94 92 L 287 92 L 287 294 L 94 294 Z M 94 92 " clip-rule="nonzero" />
    </clipPath>
    <clipPath id="90cf9d2770">
      <path
        d="M 49.023438 138.589844 L 145.238281 50.074219 L 296.328125 214.296875 L 200.117188 302.8125 Z M 49.023438 138.589844 "
        clip-rule="nonzero" />
    </clipPath>
    <clipPath id="a4a10b532a">
      <path
        d="M 107.472656 93.617188 L 276.5 194.710938 C 282.261719 198.160156 286.058594 204.121094 286.746094 210.800781 C 287.429688 217.480469 284.925781 224.09375 279.984375 228.636719 L 215.765625 287.71875 C 210.824219 292.265625 204.03125 294.214844 197.429688 292.972656 C 190.832031 291.734375 185.203125 287.453125 182.25 281.425781 L 95.558594 104.578125 C 93.914062 101.222656 94.671875 97.179688 97.421875 94.648438 C 100.175781 92.117188 104.265625 91.699219 107.472656 93.617188 Z M 107.472656 93.617188 "
        clip-rule="nonzero" />
    </clipPath>
    <clipPath id="ff1a2b31ec">
      <path d="M 0 0 L 193 0 L 193 202 L 0 202 Z M 0 0 " clip-rule="nonzero" />
    </clipPath>
    <clipPath id="447a1958e7">
      <path
        d="M -44.976562 46.589844 L 51.238281 -41.925781 L 202.328125 122.296875 L 106.117188 210.8125 Z M -44.976562 46.589844 "
        clip-rule="nonzero" />
    </clipPath>
    <clipPath id="98ed098b98">
      <path
        d="M 13.472656 1.617188 L 182.5 102.710938 C 188.261719 106.160156 192.058594 112.121094 192.746094 118.800781 C 193.429688 125.480469 190.925781 132.09375 185.984375 136.636719 L 121.765625 195.71875 C 116.824219 200.265625 110.03125 202.214844 103.429688 200.972656 C 96.832031 199.734375 91.203125 195.453125 88.25 189.425781 L 1.558594 12.578125 C -0.0859375 9.222656 0.671875 5.179688 3.421875 2.648438 C 6.175781 0.117188 10.265625 -0.300781 13.472656 1.617188 Z M 13.472656 1.617188 "
        clip-rule="nonzero" />
    </clipPath>
    <clipPath id="e2d68f42db">
      <rect x="0" width="193" y="0" height="202" />
    </clipPath>
    <clipPath id="3b168ad56c">
      <path d="M 94 91 L 307 91 L 307 283 L 94 283 Z M 94 91 " clip-rule="nonzero" />
    </clipPath>
    <clipPath id="fd98cb7f56">
      <path
        d="M 54.457031 144.765625 L 137.796875 44.039062 L 315.375 190.96875 L 232.03125 291.695312 Z M 54.457031 144.765625 "
        clip-rule="nonzero" />
    </clipPath>
    <clipPath id="c28750c00b">
      <path
        d="M 105.746094 92.160156 L 293.164062 174.019531 C 299.34375 176.71875 303.898438 182.160156 305.460938 188.71875 C 307.023438 195.277344 305.414062 202.191406 301.113281 207.386719 L 245.488281 274.617188 C 241.1875 279.808594 234.699219 282.683594 227.964844 282.378906 C 221.230469 282.070312 215.03125 278.617188 211.222656 273.054688 L 95.722656 104.273438 C 93.664062 101.261719 93.847656 97.25 96.171875 94.441406 C 98.496094 91.628906 102.402344 90.699219 105.746094 92.160156 Z M 105.746094 92.160156 "
        clip-rule="nonzero" />
    </clipPath>
    <clipPath id="9280772500">
      <path d="M 0 0 L 213 0 L 213 191.71875 L 0 191.71875 Z M 0 0 " clip-rule="nonzero" />
    </clipPath>
    <clipPath id="dd27440778">
      <path
        d="M -39.542969 53.765625 L 43.796875 -46.960938 L 221.375 99.96875 L 138.03125 200.695312 Z M -39.542969 53.765625 "
        clip-rule="nonzero" />
    </clipPath>
    <clipPath id="ba8c63af06">
      <path
        d="M 11.746094 1.160156 L 199.164062 83.019531 C 205.34375 85.71875 209.898438 91.160156 211.460938 97.71875 C 213.023438 104.277344 211.414062 111.191406 207.113281 116.386719 L 151.488281 183.617188 C 147.1875 188.808594 140.699219 191.683594 133.964844 191.378906 C 127.230469 191.070312 121.03125 187.617188 117.222656 182.054688 L 1.722656 13.273438 C -0.335938 10.261719 -0.152344 6.25 2.171875 3.441406 C 4.496094 0.628906 8.402344 -0.300781 11.746094 1.160156 Z M 11.746094 1.160156 "
        clip-rule="nonzero" />
    </clipPath>
    <clipPath id="c0352e3edc">
      <rect x="0" width="213" y="0" height="192" />
    </clipPath>
    <clipPath id="263ed3dae2">
      <path d="M 163 177 L 238 177 L 238 303 L 163 303 Z M 163 177 " clip-rule="nonzero" />
    </clipPath>
    <clipPath id="a370e4c6ec">
      <path
        d="M 137.296875 188.089844 L 188.980469 166.125 L 237.628906 280.601562 L 185.941406 302.5625 Z M 137.296875 188.089844 "
        clip-rule="nonzero" />
    </clipPath>
    <clipPath id="9db24e7565">
      <path d="M 163.136719 177.105469 L 237.621094 280.582031 L 185.933594 302.546875 Z M 163.136719 177.105469 "
        clip-rule="nonzero" />
    </clipPath>
    <clipPath id="d42717bf2b">
      <path d="M 0 0 L 74.839844 0 L 74.839844 125.640625 L 0 125.640625 Z M 0 0 " clip-rule="nonzero" />
    </clipPath>
    <clipPath id="e6a23db4dd">
      <path
        d="M -25.703125 11.089844 L 25.980469 -10.875 L 74.628906 103.601562 L 22.941406 125.5625 Z M -25.703125 11.089844 "
        clip-rule="nonzero" />
    </clipPath>
    <clipPath id="f742bb68c9">
      <path d="M 0.136719 0.105469 L 74.621094 103.582031 L 22.933594 125.546875 Z M 0.136719 0.105469 "
        clip-rule="nonzero" />
    </clipPath>
    <clipPath id="4047ec1f7f">
      <rect x="0" width="75" y="0" height="126" />
    </clipPath>
  </defs>
  <g clip-path="url(#d14bcaeb1c)">
    <g clip-path="url(#d88a716e02)">
      <g transform="matrix(1, 0, 0, 1, 25, 25)">
        <g clip-path="url(#dba768025c)">
          <g clip-path="url(#18b289fb27)">
            <g clip-path="url(#dfe7ebeecd)">
              <path fill="#737373"
                d="M 0.179688 0.179688 L 324.820312 0.179688 L 324.820312 324.820312 L 0.179688 324.820312 Z M 0.179688 0.179688 "
                fill-opacity="1" fill-rule="nonzero" />
            </g>
          </g>
        </g>
      </g>
    </g>
  </g>
  <g clip-path="url(#75d5c486c4)">
    <g clip-path="url(#96b4bc8e70)">
      <g clip-path="url(#42fffb6e30)">
        <g transform="matrix(1, 0, 0, 1, 94, 91)">
          <g clip-path="url(#71ed082c0a)">
            <g clip-path="url(#21769911f4)">
              <g clip-path="url(#f8fcc5467a)">
                <g clip-path="url(#2a96f512b1)">
                  <path fill="#ffffff"
                    d="M -67.257812 26.769531 L 50.421875 -56.679688 L 191.234375 141.902344 L 73.558594 225.347656 Z M -67.257812 26.769531 "
                    fill-opacity="1" fill-rule="nonzero" />
                </g>
              </g>
            </g>
          </g>
        </g>
      </g>
    </g>
  </g>
  <g clip-path="url(#7c3c695d98)">
    <g clip-path="url(#90cf9d2770)">
      <g clip-path="url(#a4a10b532a)">
        <g transform="matrix(1, 0, 0, 1, 94, 92)">
          <g clip-path="url(#e2d68f42db)">
            <g clip-path="url(#ff1a2b31ec)">
              <g clip-path="url(#447a1958e7)">
                <g clip-path="url(#98ed098b98)">
                  <path fill="#ffffff"
                    d="M -64.066406 35.824219 L 42.097656 -61.847656 L 206.921875 117.304688 L 100.757812 214.976562 Z M -64.066406 35.824219 "
                    fill-opacity="1" fill-rule="nonzero" />
                </g>
              </g>
            </g>
          </g>
        </g>
      </g>
    </g>
  </g>
  <g clip-path="url(#3b168ad56c)">
    <g clip-path="url(#fd98cb7f56)">
      <g clip-path="url(#c28750c00b)">
        <g transform="matrix(1, 0, 0, 1, 94, 91)">
          <g clip-path="url(#c0352e3edc)">
            <g clip-path="url(#9280772500)">
              <g clip-path="url(#dd27440778)">
                <g clip-path="url(#ba8c63af06)">
                  <path fill="#ffffff"
                    d="M -60.355469 45.328125 L 31.609375 -65.820312 L 225.25 94.398438 L 133.285156 205.546875 Z M -60.355469 45.328125 "
                    fill-opacity="1" fill-rule="nonzero" />
                </g>
              </g>
            </g>
          </g>
        </g>
      </g>
    </g>
  </g>
  <g clip-path="url(#263ed3dae2)">
    <g clip-path="url(#a370e4c6ec)">
      <g clip-path="url(#9db24e7565)">
        <g transform="matrix(1, 0, 0, 1, 163, 177)">
          <g clip-path="url(#4047ec1f7f)">
            <g clip-path="url(#d42717bf2b)">
              <g clip-path="url(#e6a23db4dd)">
                <g clip-path="url(#f742bb68c9)">
                  <path fill="#ffffff"
                    d="M -25.703125 11.089844 L 25.980469 -10.875 L 74.628906 103.601562 L 22.941406 125.5625 Z M -25.703125 11.089844 "
                    fill-opacity="1" fill-rule="nonzero" />
                </g>
              </g>
            </g>
          </g>
        </g>
      </g>
    </g>
  </g>
</svg>