<svg xmlns="http://www.w3.org/2000/svg" version="1.1" xmlns:xlink="http://www.w3.org/1999/xlink" xmlns:svgjs="http://svgjs.dev/svgjs" viewBox="0 0 800 800"><defs><linearGradient x1="50%" y1="0%" x2="50%" y2="100%" id="gggyrate-grad"><stop stop-color="hsl(184, 6%, 91%)" stop-opacity="1" offset="0%"></stop><stop stop-color="hsl(332, 17%, 91%)" stop-opacity="1" offset="100%"></stop></linearGradient></defs><g stroke-width="2" stroke="url(#gggyrate-grad)" fill="none"><path d="M399.9999694824219 -184.27764892578125L906.0000018154954 107.86117994000051V692.138837671564L399.9999694824219 984.2776665373458L-106.0000628506516 692.138837671564V107.86117994000051L399.9999694824219 -184.27764892578125Z " transform="rotate(44, 400, 400)" opacity="0.05"></path><path d="M399.9999694824219 -157.7196044921875L883.0000003458103 121.14018669787697V678.8597690780057L399.9999694824219 957.7195602680702L-83.00006138096649 678.8597690780057V121.14018669787697L399.9999694824219 -157.7196044921875Z " transform="rotate(42, 400, 400)" opacity="0.10"></path><path d="M399.9999694824219 -131.1614990234375L859.9999988761251 134.41925449090957V665.5807615196036L399.9999694824219 931.1615150339508L-60.00005991128131 665.5807615196036V134.41925449090957L399.9999694824219 -131.1614990234375Z " transform="rotate(40, 400, 400)" opacity="0.14"></path><path d="M399.9999694824219 -104.60345458984375L836.9999974064399 147.6982612487859V652.3016929260453L399.9999694824219 904.6034087646749L-37.00005844159614 652.3016929260453V147.6982612487859L399.9999694824219 -104.60345458984375Z " transform="rotate(38, 400, 400)" opacity="0.19"></path><path d="M399.9999694824219 -78.04534912109375L813.9999959367547 160.97732904181862V639.0226853676432L399.9999694824219 878.0453635305557L-14.000056971910965 639.0226853676432V160.97732904181862L399.9999694824219 -78.04534912109375Z " transform="rotate(36, 400, 400)" opacity="0.23"></path><path d="M399.9999694824219 -51.4873046875L790.9999944670694 174.25633579969497V625.743616774085L399.9999694824219 851.4872572612799L8.999944497774152 625.743616774085V174.25633579969497L399.9999694824219 -51.4873046875Z " transform="rotate(34, 400, 400)" opacity="0.28"></path><path d="M400.0000305175781 -24.92919921875L768.0000540325406 187.53540359272768V612.4646092156829L400.0000305175781 824.9292120271607L32.000007002615575 612.4646092156829V187.53540359272768L400.0000305175781 -24.92919921875Z " transform="rotate(32, 400, 400)" opacity="0.32"></path><path d="M400.0000305175781 1.62884521484375L745.0000525628556 200.81441035060402V599.1855406221247L400.0000305175781 798.3711057578848L55.00000847230075 599.1855406221247V200.81441035060402L400.0000305175781 1.62884521484375Z " transform="rotate(30, 400, 400)" opacity="0.37"></path><path d="M400.0000305175781 28.18695068359375L722.0000510931703 214.09347814363667V585.9065330637225L400.0000305175781 771.8130605237654L78.00000994198592 585.9065330637225V214.09347814363667L400.0000305175781 28.18695068359375Z " transform="rotate(28, 400, 400)" opacity="0.41"></path><path d="M400.0000305175781 54.745025634765625L699.0000496234852 227.3725154190912V572.6274949877424L400.0000305175781 745.2549847720679L101.00001141167104 572.6274949877424V227.3725154190912L400.0000305175781 54.745025634765625Z " transform="rotate(26, 400, 400)" opacity="0.46"></path><path d="M400.0000305175781 81.3031005859375L676.0000481538001 240.65155269454573V559.3484569117622L400.0000305175781 718.6969090203704L124.00001288135621 559.3484569117622V240.65155269454573L400.0000305175781 81.3031005859375Z " transform="rotate(24, 400, 400)" opacity="0.50"></path><path d="M400.00001525878906 107.86117553710938L653.0000314253258 253.93058997000026V546.069418835782L400.00001525878906 692.1388332686729L146.99999909225232 546.069418835782V253.93058997000026L400.00001525878906 107.86117553710938Z " transform="rotate(22, 400, 400)" opacity="0.55"></path><path d="M400 134.41925048828125L630.0000146968516 267.2096272454548V532.7903807598018L400 665.5807575169754L169.99998530314843 532.7903807598018V267.2096272454548L400 134.41925048828125Z " transform="rotate(20, 400, 400)" opacity="0.59"></path><path d="M400 160.97732543945312L607.0000132271664 280.4886645209093V519.5113426838216L400 639.0226817652779L192.99998677283355 519.5113426838216V280.4886645209093L400 160.97732543945312Z " transform="rotate(18, 400, 400)" opacity="0.64"></path><path d="M400 187.535400390625L584.0000117574812 293.76770179636384V506.23230460784146L400 612.4646060135804L215.99998824251873 506.23230460784146V293.76770179636384L400 187.535400390625Z " transform="rotate(16, 400, 400)" opacity="0.68"></path><path d="M400 214.09347534179688L561.0000102877962 307.04673907181837V492.95326653186123L400 585.9065302618827L238.9999897122039 492.95326653186123V307.04673907181837L400 214.09347534179688Z " transform="rotate(14, 400, 400)" opacity="0.73"></path><path d="M400 240.65155029296875L538.0000088181109 320.32577634727284V479.6742284558811L400 559.3484545101852L261.9999911818891 479.6742284558811V320.32577634727284L400 240.65155029296875Z " transform="rotate(12, 400, 400)" opacity="0.77"></path><path d="M400 267.2096252441406L515.0000073484258 333.6048136227274V466.3951903799009L400 532.7903787584877L284.9999926515742 466.3951903799009V333.6048136227274L400 267.2096252441406Z " transform="rotate(10, 400, 400)" opacity="0.82"></path><path d="M400 293.7677001953125L492.0000058787406 346.8838508981819V453.1161523039207L400 506.2323030067902L307.99999412125936 453.1161523039207V346.8838508981819L400 293.7677001953125Z " transform="rotate(8, 400, 400)" opacity="0.86"></path><path d="M400 320.3257751464844L469.00000440905546 360.1628881736364V439.83711422794056L400 479.6742272550926L330.99999559094454 439.83711422794056V360.1628881736364L400 320.3257751464844Z " transform="rotate(6, 400, 400)" opacity="0.91"></path><path d="M400 346.88385009765625L446.0000029393703 373.44192544909095V426.55807615196034L400 453.1161515033951L353.9999970606297 426.55807615196034V373.44192544909095L400 346.88385009765625Z " transform="rotate(4, 400, 400)" opacity="0.95"></path><path d="M400 373.4419250488281L423.0000014696852 386.7209627245455V413.27903807598017L400 426.5580757516975L376.9999985303148 413.27903807598017V386.7209627245455L400 373.4419250488281Z " transform="rotate(2, 400, 400)" opacity="1.00"></path></g></svg>