<svg xmlns="http://www.w3.org/2000/svg" version="1.1" xmlns:xlink="http://www.w3.org/1999/xlink" xmlns:svgjs="http://svgjs.dev/svgjs" viewBox="0 0 1422 800"><defs><linearGradient x1="50%" y1="0%" x2="50%" y2="100%" id="oooscillate-grad"><stop stop-color="hsl(237, 2%, 84%)" stop-opacity="1" offset="0%"></stop><stop stop-color="hsl(24, 11%, 82%)" stop-opacity="1" offset="100%"></stop></linearGradient></defs><g stroke-width="1" stroke="url(#oooscillate-grad)" fill="none" stroke-linecap="round"><path d="M 0 924 Q 355.5 185 711 400 Q 1066.5 615 1422 924" opacity="0.62"></path><path d="M 0 902 Q 355.5 185 711 400 Q 1066.5 615 1422 902" opacity="0.71"></path><path d="M 0 880 Q 355.5 185 711 400 Q 1066.5 615 1422 880" opacity="0.93"></path><path d="M 0 858 Q 355.5 185 711 400 Q 1066.5 615 1422 858" opacity="0.24"></path><path d="M 0 836 Q 355.5 185 711 400 Q 1066.5 615 1422 836" opacity="0.17"></path><path d="M 0 814 Q 355.5 185 711 400 Q 1066.5 615 1422 814" opacity="0.87"></path><path d="M 0 792 Q 355.5 185 711 400 Q 1066.5 615 1422 792" opacity="0.72"></path><path d="M 0 770 Q 355.5 185 711 400 Q 1066.5 615 1422 770" opacity="0.34"></path><path d="M 0 748 Q 355.5 185 711 400 Q 1066.5 615 1422 748" opacity="0.25"></path><path d="M 0 726 Q 355.5 185 711 400 Q 1066.5 615 1422 726" opacity="0.35"></path><path d="M 0 704 Q 355.5 185 711 400 Q 1066.5 615 1422 704" opacity="0.56"></path><path d="M 0 682 Q 355.5 185 711 400 Q 1066.5 615 1422 682" opacity="0.70"></path><path d="M 0 660 Q 355.5 185 711 400 Q 1066.5 615 1422 660" opacity="0.60"></path><path d="M 0 638 Q 355.5 185 711 400 Q 1066.5 615 1422 638" opacity="0.37"></path><path d="M 0 616 Q 355.5 185 711 400 Q 1066.5 615 1422 616" opacity="0.76"></path><path d="M 0 594 Q 355.5 185 711 400 Q 1066.5 615 1422 594" opacity="0.53"></path><path d="M 0 572 Q 355.5 185 711 400 Q 1066.5 615 1422 572" opacity="0.16"></path><path d="M 0 550 Q 355.5 185 711 400 Q 1066.5 615 1422 550" opacity="0.24"></path><path d="M 0 528 Q 355.5 185 711 400 Q 1066.5 615 1422 528" opacity="0.78"></path><path d="M 0 506 Q 355.5 185 711 400 Q 1066.5 615 1422 506" opacity="0.24"></path><path d="M 0 484 Q 355.5 185 711 400 Q 1066.5 615 1422 484" opacity="0.32"></path><path d="M 0 462 Q 355.5 185 711 400 Q 1066.5 615 1422 462" opacity="0.51"></path><path d="M 0 440 Q 355.5 185 711 400 Q 1066.5 615 1422 440" opacity="0.73"></path><path d="M 0 418 Q 355.5 185 711 400 Q 1066.5 615 1422 418" opacity="0.10"></path><path d="M 0 396 Q 355.5 185 711 400 Q 1066.5 615 1422 396" opacity="0.96"></path><path d="M 0 374 Q 355.5 185 711 400 Q 1066.5 615 1422 374" opacity="0.11"></path><path d="M 0 352 Q 355.5 185 711 400 Q 1066.5 615 1422 352" opacity="0.86"></path><path d="M 0 330 Q 355.5 185 711 400 Q 1066.5 615 1422 330" opacity="0.46"></path><path d="M 0 308 Q 355.5 185 711 400 Q 1066.5 615 1422 308" opacity="0.22"></path><path d="M 0 286 Q 355.5 185 711 400 Q 1066.5 615 1422 286" opacity="0.55"></path><path d="M 0 264 Q 355.5 185 711 400 Q 1066.5 615 1422 264" opacity="0.66"></path><path d="M 0 242 Q 355.5 185 711 400 Q 1066.5 615 1422 242" opacity="0.87"></path><path d="M 0 220 Q 355.5 185 711 400 Q 1066.5 615 1422 220" opacity="0.15"></path><path d="M 0 198 Q 355.5 185 711 400 Q 1066.5 615 1422 198" opacity="0.22"></path><path d="M 0 176 Q 355.5 185 711 400 Q 1066.5 615 1422 176" opacity="0.29"></path><path d="M 0 154 Q 355.5 185 711 400 Q 1066.5 615 1422 154" opacity="0.21"></path><path d="M 0 132 Q 355.5 185 711 400 Q 1066.5 615 1422 132" opacity="0.60"></path><path d="M 0 110 Q 355.5 185 711 400 Q 1066.5 615 1422 110" opacity="0.87"></path><path d="M 0 88 Q 355.5 185 711 400 Q 1066.5 615 1422 88" opacity="0.53"></path><path d="M 0 66 Q 355.5 185 711 400 Q 1066.5 615 1422 66" opacity="0.16"></path><path d="M 0 44 Q 355.5 185 711 400 Q 1066.5 615 1422 44" opacity="0.40"></path></g></svg>